<?xml version="1.0" encoding="UTF-8"?>
<svg width="46px" height="46px" viewBox="0 0 46 46" version="1.1" xmlns="http://www.w3.org/2000/svg" xmlns:xlink="http://www.w3.org/1999/xlink">
    <!-- Generator: Sketch 54.1 (76490) - https://sketchapp.com -->
    <title>expand</title>
    <desc>Created with Sketch.</desc>
    <g id="Page-1" stroke="none" stroke-width="1" fill="none" fill-rule="evenodd">
        <g id="expand" fill="#FFFFFF" fill-rule="nonzero">
            <path d="M21.6008155,29.0239205 L12.18744,38.437296 L15.5310642,41.5886633 C17.0666816,43.1242807 15.9791557,45.74976 13.807557,45.74976 L2.43261302,45.74976 C1.08640871,45.74976 -3.60820707e-16,44.6584763 -3.60820707e-16,43.312272 L-3.60820707e-16,31.937328 C-3.60820707e-16,29.7657293 2.62060429,28.6782034 4.15612016,30.2137193 L7.312464,33.56232 L16.7258395,24.1489445 C17.3603989,23.5143851 18.3893235,23.5143851 19.0238829,24.1489445 L21.6008155,26.7258771 C22.2354765,27.3604365 22.2354765,28.3892595 21.6008155,29.0239205 L21.6008155,29.0239205 Z M23.8989605,16.9758235 L33.312336,7.562448 L29.9687118,4.4110807 C28.4330944,2.87546326 29.5206203,0.249984 31.692219,0.249984 L43.067163,0.249984 C44.4133673,0.249984 45.499776,1.34126769 45.499776,2.687472 L45.499776,14.062416 C45.499776,16.2340147 42.8791717,17.3215406 41.3436558,15.7860247 L38.187312,12.437424 L28.7739365,21.8507995 C28.1393771,22.4853589 27.1104525,22.4853589 26.4758931,21.8507995 L23.8989605,19.2738669 C23.2642995,18.6393075 23.2642995,17.6104845 23.8989605,16.9758235 L23.8989605,16.9758235 Z" id="Shape"></path>
        </g>
    </g>
</svg>